Coordinates
version=1
nRows=54
nColumns=12
inDegrees=yes

Units are S.I. units (second, meters, Newtons, ...)
Angles are in degrees

endheader
time	SC_y	SC_z	SC_x	AC_y	AC_z	AC_x	GH_y	GH_z	GH_yy	EL_x	PS_y
       0.0              -28.95          22.35           78.6          60.75         -3.721          19.15          -31.2          -12.2         -167.7          70.44          37.63
   0.02258              -28.95          22.35          78.59          60.75          -3.72          19.14          -31.2          -12.2         -167.6          70.44          37.64
   0.04515              -28.95          22.36          78.58          60.75         -3.719          19.14         -31.21          -12.2         -167.6          70.45          37.64
   0.06773              -28.95          22.36          78.57          60.75         -3.718          19.14         -31.22          -12.2         -167.5          70.46          37.65
    0.0903              -28.95          22.36          78.56          60.75         -3.717          19.14         -31.23          -12.2         -167.5          70.47          37.65
    0.1129              -28.95          22.36          78.56          60.74         -3.716          19.14         -31.24          -12.2         -167.4          70.48          37.66
    0.1355              -28.96          22.37          78.55          60.74         -3.714          19.13         -31.25          -12.2         -167.4          70.49          37.66
     0.158              -28.96          22.37          78.53          60.74         -3.713          19.13         -31.27         -12.19         -167.3           70.5          37.67
    0.1806              -28.96          22.37          78.52          60.74         -3.712          19.13         -31.28         -12.19         -167.2          70.51          37.68
    0.2032              -28.96          22.38          78.51          60.74          -3.71          19.13         -31.29         -12.19         -167.2          70.52          37.68
    0.2258              -28.97          22.38           78.5          60.74         -3.709          19.12         -31.31         -12.19         -167.1          70.54          37.69
    0.2483              -28.97          22.38          78.48          60.74         -3.707          19.12         -31.32         -12.19         -167.0          70.55           37.7
    0.2709              -28.97          22.39          78.47          60.73         -3.705          19.12         -31.34         -12.19         -166.9          70.57          37.71
    0.2935              -28.97          22.39          78.45          60.73         -3.703          19.11         -31.36         -12.18         -166.8          70.59          37.72
    0.3161              -28.98           22.4          78.43          60.73         -3.701          19.11         -31.38         -12.18         -166.7           70.6          37.73
    0.3386              -28.98           22.4          78.41          60.73         -3.699           19.1          -31.4         -12.18         -166.6          70.62          37.74
    0.3612              -28.99          22.41          78.39          60.73         -3.696           19.1         -31.42         -12.18         -166.5          70.65          37.75
    0.3838              -28.99          22.41          78.37          60.72         -3.694          19.09         -31.45         -12.17         -166.4          70.67          37.76
    0.4064               -29.0          22.42          78.35          60.72         -3.691          19.09         -31.48         -12.17         -166.2           70.7          37.78
    0.4289               -29.0          22.43          78.32          60.72         -3.687          19.08         -31.51         -12.17         -166.0          70.73          37.79
    0.4515              -29.01          22.44          78.29          60.71         -3.684          19.07         -31.54         -12.16         -165.9          70.76          37.81
    0.4741              -29.01          22.45          78.25          60.71          -3.68          19.06         -31.58         -12.16         -165.7          70.79          37.83
    0.4967              -29.02          22.46          78.22          60.71         -3.675          19.06         -31.62         -12.15         -165.5          70.83          37.85
    0.5192              -29.03          22.47          78.18           60.7         -3.671          19.05         -31.66         -12.15         -165.2          70.87          37.87
    0.5418              -29.04          22.48          78.13           60.7         -3.665          19.04         -31.71         -12.14         -165.0          70.92           37.9
    0.5644              -29.05          22.49          78.08          60.69         -3.659          19.02         -31.77         -12.13         -164.7          70.97          37.93
     0.587              -29.06          22.51          78.03          60.68         -3.653          19.01         -31.83         -12.13         -164.3          71.03          37.96
    0.6095              -29.07          22.53          77.96          60.68         -3.645           19.0          -31.9         -12.12         -164.0           71.1           38.0
    0.6321              -29.09          22.55          77.89          60.67         -3.636          18.98         -31.98         -12.11         -163.6          71.17          38.04
    0.6547               -29.1          22.57          77.81          60.66         -3.627          18.96         -32.07          -12.1         -163.1          71.25          38.09
    0.6773              -29.12           22.6          77.72          60.65         -3.616          18.94         -32.18         -12.08         -162.5          71.35          38.14
    0.6998              -29.14          22.62          77.61          60.64         -3.603          18.91          -32.3         -12.07         -161.9          71.46           38.2
    0.7224              -29.17          22.66          77.49          60.62         -3.588          18.88         -32.43         -12.05         -161.2          71.59          38.27
     0.745               -29.2           22.7          77.34          60.61         -3.571          18.85         -32.59         -12.03         -160.4          71.74          38.36
    0.7676              -29.23          22.74          77.18          60.59         -3.551          18.81         -32.78         -12.01         -159.4          71.91          38.45
    0.7901              -29.27           22.8          76.98          60.56         -3.528          18.76          -33.0         -11.99         -158.2          72.12          38.57
    0.8127              -29.32          22.86          76.75          60.54           -3.5          18.71         -33.26         -11.95         -156.9          72.36           38.7
    0.8353              -29.37          22.94          76.46          60.51         -3.466          18.64         -33.58         -11.92         -155.2          72.65          38.86
    0.8579              -29.44          23.04          76.12          60.47         -3.426          18.56         -33.96         -11.87         -153.2          73.01          39.06
    0.8804              -29.52          23.15          75.71          60.42         -3.376          18.46         -34.42         -11.82         -150.8          73.44           39.3
     0.903              -29.63          23.29           75.2          60.36         -3.315          18.34         -34.99         -11.75         -147.8          73.97          39.59
    0.9256              -29.75          23.47          74.56          60.29         -3.239          18.18          -35.7         -11.66         -144.1          74.64          39.96
    0.9482              -29.91          23.69          73.75           60.2         -3.143          17.99          -36.6         -11.55         -139.4          75.47          40.43
    0.9707              -30.12          23.97          72.73          60.08         -3.021          17.75         -37.74         -11.42         -133.4          76.54          41.02
    0.9933              -30.38          24.34          71.42          59.93         -2.865          17.44         -39.21         -11.24         -125.7           77.9          41.77
     1.016              -30.72           24.8          69.74          59.74         -2.664          17.04         -41.08         -11.01         -115.9          79.65          42.74
     1.038              -31.15          25.39          67.59           59.5         -2.408          16.52         -43.48         -10.73         -103.3          81.88          43.98
     1.061              -31.69          26.14           64.9          59.19         -2.086          15.88         -46.49         -10.36         -87.57          84.69          45.54
     1.084              -32.34          27.05          61.61          58.81         -1.694           15.1         -50.16         -9.922         -68.34          88.11          47.44
     1.106              -33.11           28.1           57.8          58.38         -1.239          14.19         -54.42          -9.41         -46.04          92.07          49.64
     1.129              -33.93          29.25          53.67          57.91         -0.747           13.2         -59.03         -8.856         -21.91          96.36          52.02
     1.151              -34.76          30.39          49.54          57.44        -0.2547          12.22         -63.64         -8.302          2.228          100.7           54.4
     1.174              -35.52          31.44          45.73          57.01         0.2001          11.31         -67.89          -7.79          24.52          104.6           56.6
     1.196              -36.18          32.35          42.44          56.63         0.5924          10.53         -71.56         -7.349          43.75          108.0           58.5
